<svg id="visual" viewBox="0 0 900 600" xmlns="http://www.w3.org/2000/svg" xmlns:xlink="http://www.w3.org/1999/xlink" version="1.1"><path d="M0 378L21.5 394.8C43 411.7 86 445.3 128.8 456.3C171.7 467.3 214.3 455.7 257.2 450.5C300 445.3 343 446.7 385.8 449.8C428.7 453 471.3 458 514.2 466C557 474 600 485 642.8 477.2C685.7 469.3 728.3 442.7 771.2 444.8C814 447 857 478 878.5 493.5L900 509L900 601L878.5 601C857 601 814 601 771.2 601C728.3 601 685.7 601 642.8 601C600 601 557 601 514.2 601C471.3 601 428.7 601 385.8 601C343 601 300 601 257.2 601C214.3 601 171.7 601 128.8 601C86 601 43 601 21.5 601L0 601Z" fill="#FFFFFF" stroke-linecap="round" stroke-linejoin="miter"></path></svg>