<svg id="visual" viewBox="0 0 960 540" xmlns="http://www.w3.org/2000/svg" xmlns:xlink="http://www.w3.org/1999/xlink" version="1.1"><path d="M0 490L32 463.7C64 437.3 128 384.7 192 369.2C256 353.7 320 375.3 384 399.2C448 423 512 449 576 439.3C640 429.7 704 384.3 768 376.3C832 368.3 896 397.7 928 412.3L960 427L960 541L928 541C896 541 832 541 768 541C704 541 640 541 576 541C512 541 448 541 384 541C320 541 256 541 192 541C128 541 64 541 32 541L0 541Z" fill="#FFFFFF" stroke-linecap="round" stroke-linejoin="miter"></path></svg>