<?xml version="1.0" encoding="iso-8859-1"?>
<!-- Uploaded to: SVG Repo, www.svgrepo.com, Generator: SVG Repo Mixer Tools -->
<!DOCTYPE svg PUBLIC "-//W3C//DTD SVG 1.1//EN" "http://www.w3.org/Graphics/SVG/1.1/DTD/svg11.dtd">
<svg version="1.1" id="Capa_1" xmlns="http://www.w3.org/2000/svg" xmlns:xlink="http://www.w3.org/1999/xlink" 
	 viewBox="0 0 483.916 483.916" xml:space="preserve">
<g>
	<path style="fill:#fff;" d="M284.741,401.073h-223V41.594c0-2.781,2.263-5.036,5.052-5.036h212.897
		c2.79,0,5.052,2.255,5.052,5.036v34.516l33.98-33.988v-0.527c0-21.519-17.515-39.024-39.032-39.024H66.793
		c-21.526,0-39.041,17.506-39.041,39.024v403.299c0,21.518,17.515,39.023,39.041,39.023h212.897
		c21.518,0,39.032-17.505,39.032-39.023V234.33l-33.98,33.988V401.073z M150.045,443.71c0-12.807,10.382-23.196,23.181-23.196
		c12.836,0,23.212,10.39,23.212,23.196c0,12.789-10.376,23.212-23.212,23.212C160.427,466.922,150.045,456.499,150.045,443.71z"/>
	<path style="fill:#fff;" d="M354.818,54.096c-4.98-4.988-13.044-4.988-18.024,0L203.119,187.761
		c-1.525,1.52-2.653,3.405-3.245,5.499l-19.279,67.354c-1.272,4.444-0.041,9.239,3.236,12.517c2.423,2.414,5.676,3.726,9.017,3.726
		c1.167,0,2.351-0.16,3.51-0.496l67.335-19.296c2.079-0.591,3.973-1.711,5.5-3.23l133.673-133.665
		c2.39-2.382,3.741-5.628,3.741-9.018c0-3.373-1.351-6.618-3.741-9L354.818,54.096z M211.426,245.537l9.68-33.811l24.107,24.124
		L211.426,245.537z M260.193,226.785l-30.032-30.023L345.803,81.128l30.038,30.023L260.193,226.785z"/>
	<g>
		<path style="fill:#fff;" d="M442.735,13.44C434.129,4.826,422.475,0,410.325,0S386.53,4.826,377.94,13.424l-11.585,11.599
			c-4.313,4.318-4.313,11.314,0,15.633L415.5,89.854c4.318,4.323,11.325,4.326,15.646,0.005l11.598-11.599
			C460.639,60.366,460.639,31.336,442.735,13.44z M425.1,60.593l-1.813,1.82l-29.516-29.516l1.828-1.821
			c3.935-3.949,9.167-6.111,14.726-6.111c5.567,0,10.809,2.179,14.758,6.128c3.943,3.95,6.112,9.183,6.112,14.758
			C431.195,51.425,429.033,56.659,425.1,60.593z"/>
	</g>
</g>
</svg>